<svg id="Layer_1" data-name="Layer 1" xmlns="http://www.w3.org/2000/svg" viewBox="0 0 365 90"><defs><style>.cls-1,.cls-5{fill:#0b73b8;}.cls-2{fill:#fcfdff;}.cls-3{fill:#567bbc;}.cls-4{fill:#fff;}.cls-5{font-size:55.58px;font-family:Almarai-Bold, Almarai;font-weight:700;}</style></defs><circle class="cls-1" cx="76.48" cy="46.5" r="19.76"/><circle class="cls-2" cx="76.48" cy="46.5" r="14.02"/><circle class="cls-1" cx="76.48" cy="46.5" r="9.19"/><path class="cls-1" d="M87.74,30.76V21.17s-11.3-11.56-22.53,0V32.48Z"/><path class="cls-1" d="M63.88,19.63s11.66-14.37,25.17,0v3.52l13.52-4.95-26-14.93L62.81,14.08l-6.61.14v6.12l7.39,2.81Z"/><polygon class="cls-1" points="54.77 14.36 54.77 20.19 46.67 17.27 54.77 14.36"/><polygon class="cls-3" points="56.2 20.34 56.2 24.77 57.19 24.77 57.19 20.72 56.2 20.34"/><rect class="cls-1" x="54.78" y="24.77" width="3.56" height="3.08"/><polygon class="cls-1" points="81.05 54.56 86.42 59.8 90.77 56.77 97.84 59.8 94.76 52.05 102.91 46.56 73.38 45.49 81.05 54.56"/><polygon class="cls-4" points="90.68 52.05 86.33 55.66 76.37 46.28 96.3 48.07 92.68 50.97 83.43 48.9 90.68 52.05"/><polygon class="cls-4" points="93.04 55.66 89.96 54.28 90.68 52.05 93.04 55.66"/><polygon class="cls-1" points="92.67 57.85 75.92 85.96 59.22 56.13 75.92 63.11 92.67 57.85"/><text class="cls-5" transform="translate(109.55 66.27)">Rawdati</text></svg>